REM DISCID F710C612
REM COMMENT "ExactAudioCopy v1.1"
CATALOG 4571374912320
PERFORMER "Various Artists"
TITLE "≥ı“Ù•ﬂ•Ø Project mirai §≥§Û§◊§Í~§»"
FILE "Various Artists - ≥ı“Ù•ﬂ•Ø Project mirai §≥§Û§◊§Í~§» DISC4.wav" WAVE
  TRACK 01 AUDIO
    TITLE "§œ§∏§·§ﬁ§∑§∆µÿ«Ú»À§µ§Û feat. ≥ı“Ù•ﬂ•Ø"
    PERFORMER "•‘•Œ•≠•™•‘©`"
    ISRC JPJ931500113
    INDEX 01 00:00:00
  TRACK 02 AUDIO
    TITLE "1£Ø6 -out of the gravity- feat. ≥ı“Ù•ﬂ•Ø"
    PERFORMER "§‹©`§´§Í§™§…P (noa)"
    ISRC JPJ931500114
    INDEX 00 03:54:30
    INDEX 01 03:56:00
  TRACK 03 AUDIO
    TITLE "Õ˝œÎ•π•±•√•¡ feat. ≥ı“Ù•ﬂ•Ø"
    PERFORMER "40mP"
    ISRC JPJ931500115
    INDEX 00 08:19:30
    INDEX 01 08:21:00
  TRACK 04 AUDIO
    TITLE "1925 feat. ≥ı“Ù•ﬂ•Ø"
    PERFORMER "T-POCKET"
    ISRC JPJ931500116
    INDEX 00 12:02:30
    INDEX 01 12:04:00
  TRACK 05 AUDIO
    TITLE "•µ•Û•…•Í•Ë•Û feat. ≥ı“Ù•ﬂ•Ø, KAITO"
    PERFORMER "Dios/•∑•∞• •ÎP"
    ISRC JPJ931500117
    INDEX 00 15:21:30
    INDEX 01 15:23:00
  TRACK 06 AUDIO
    TITLE "•¢•…•Ï•µ•Û•π feat. ÁR“Ù•Í•Û, ÁR“Ù•Ï•Û"
    PERFORMER "Dios/•∑•∞• •ÎP"
    ISRC JPJ931500118
    INDEX 00 19:59:30
    INDEX 01 20:01:00
  TRACK 07 AUDIO
    TITLE "on the rocks feat. KAITO, MEIKO"
    PERFORMER "OSTER project"
    ISRC JPJ931500119
    INDEX 00 24:37:30
    INDEX 01 24:39:00
  TRACK 08 AUDIO
    TITLE "£™•œ•Ì©`°¢•◊•È•Õ•√•»°£ feat. ≥ı“Ù•ﬂ•Ø"
    PERFORMER "sasakure.UK"
    ISRC JPJ931500120
    INDEX 00 29:01:30
    INDEX 01 29:03:00
  TRACK 09 AUDIO
    TITLE "ÀΩ§ŒïrÈg feat. ≥ı“Ù•ﬂ•Ø"
    PERFORMER "§Ø§¡§–§∑"
    ISRC JPJ931500121
    INDEX 00 34:01:30
    INDEX 01 34:03:00
  TRACK 10 AUDIO
    TITLE "shake it! feat. ≥ı“Ù•ﬂ•Ø, ÁR“Ù•Í•Û, ÁR“Ù•Ï•Û"
    PERFORMER "emon"
    ISRC JPJ931500122
    INDEX 00 38:29:30
    INDEX 01 38:31:00
  TRACK 11 AUDIO
    TITLE "Õ˝œÎ•π•±•√•¡°°(ÁR“Ù•Í•Û•‹©`•´•Î Ver.)"
    PERFORMER "40mP"
    ISRC JPJ931500123
    INDEX 00 42:15:30
    INDEX 01 42:17:00
  TRACK 12 AUDIO
    TITLE "1925°°(ÁR“Ù•Í•Û•‹©`•´•Î Ver.)"
    PERFORMER "T-POCKET"
    ISRC JPJ931500124
    INDEX 00 45:59:30
    INDEX 01 46:01:00
  TRACK 13 AUDIO
    TITLE "1925°°(ÁR“Ù•Ï•Û•‹©`•´•Î Ver.)"
    PERFORMER "T-POCKET"
    ISRC JPJ931500125
    INDEX 00 49:18:30
    INDEX 01 49:20:00
  TRACK 14 AUDIO
    TITLE "1925°°(—≤“Ù•Î•´•‹©`•´•Î Ver.)"
    PERFORMER "T-POCKET"
    ISRC JPJ931500126
    INDEX 00 52:37:30
    INDEX 01 52:39:00
  TRACK 15 AUDIO
    TITLE "1925°°(KAITO•‹©`•´•Î Ver.)"
    PERFORMER "T-POCKET"
    ISRC JPJ931500127
    INDEX 00 55:56:30
    INDEX 01 55:58:00
  TRACK 16 AUDIO
    TITLE "1925°°(MEIKO•‹©`•´•Î Ver.)"
    PERFORMER "T-POCKET"
    ISRC JPJ931500128
    INDEX 00 59:15:30
    INDEX 01 59:17:00
  TRACK 17 AUDIO
    TITLE "ÀΩ§ŒïrÈg°°(ÁR“Ù•Í•Û•‹©`•´•Î Ver.)"
    PERFORMER "§Ø§¡§–§∑"
    ISRC JPJ931500129
    INDEX 00 62:34:30
    INDEX 01 62:36:00
  TRACK 18 AUDIO
    TITLE "ÀΩ§ŒïrÈg°°(ÁR“Ù•Ï•Û•‹©`•´•Î Ver.)"
    PERFORMER "§Ø§¡§–§∑"
    ISRC JPJ931500130
    INDEX 00 67:02:30
    INDEX 01 67:04:00
